M48
; DRILL file {KiCad 8.0.3} date 2024-07-11T22:30:35-0600
; FORMAT={-:-/ absolute / inch / decimal}
; #@! TF.CreationDate,2024-07-11T22:30:35-06:00
; #@! TF.GenerationSoftware,Kicad,Pcbnew,8.0.3
; #@! TF.FileFunction,Plated,1,2,PTH
FMAT,2
INCH
; #@! TA.AperFunction,Plated,PTH,ViaDrill
T1C0.0118
; #@! TA.AperFunction,Plated,PTH,ComponentDrill
T2C0.0299
; #@! TA.AperFunction,Plated,PTH,ComponentDrill
T3C0.0394
; #@! TA.AperFunction,Plated,PTH,ComponentDrill
T4C0.0402
; #@! TA.AperFunction,Plated,PTH,ComponentDrill
T5C0.0512
%
G90
G05
T1
X4.45Y-2.6
X5.3413Y-3.248
X5.4Y-3.1
X5.4Y-3.35
X5.4528Y-4.4626
X5.4961Y-4.4626
X5.5413Y-3.3563
X5.5709Y-3.2776
X5.7874Y-3.3465
X5.8169Y-3.7402
X5.876Y-4.1043
X5.9016Y-3.6299
X5.9016Y-3.8307
X6.063Y-3.0709
T2
X4.7063Y-2.4
X4.7311Y-2.6575
X4.7311Y-3.0512
X5.1Y-2.4
T3
X4.3671Y-2.6969
X4.4671Y-2.6969
X4.5671Y-2.6969
X4.5835Y-3.6134
X4.5835Y-3.7134
X4.5835Y-3.8134
X4.5835Y-3.9134
X4.5835Y-4.0134
X4.5835Y-4.1134
X4.5835Y-4.2134
X4.5835Y-4.3134
X4.5835Y-4.4134
X4.5835Y-4.5134
X4.8498Y-4.8031
X4.9498Y-4.8031
X5.6366Y-4.6772
X5.7366Y-4.6772
X5.8366Y-4.6772
X5.9366Y-4.6772
X5.9811Y-2.548
X5.9811Y-2.648
X5.9811Y-2.748
X5.9811Y-2.848
X5.9811Y-2.948
X5.9811Y-3.048
X5.9811Y-3.148
X5.9811Y-3.248
X5.9811Y-3.6583
X5.9811Y-3.7583
X5.9811Y-3.8583
X5.9811Y-3.9583
X5.9811Y-4.0583
X5.9811Y-4.1583
X5.9811Y-4.2583
X5.9811Y-4.3583
T4
X4.9268Y-2.6079
X4.9268Y-2.7079
X4.9268Y-2.8079
X4.9268Y-2.9079
X4.9268Y-3.0079
X4.9268Y-3.1079
X4.9268Y-3.2079
X4.9268Y-3.3079
X4.9268Y-3.4079
X4.9268Y-3.5079
X4.9268Y-3.6079
X4.9268Y-3.7079
X4.9268Y-3.8079
X4.9268Y-3.9079
X4.9268Y-4.0079
X4.9268Y-4.1079
X4.9268Y-4.2079
X4.9268Y-4.3079
X4.9268Y-4.4079
X4.9268Y-4.5079
X5.1768Y-4.4988
X5.2768Y-4.4988
X5.3768Y-4.4988
X5.6268Y-2.6079
X5.6268Y-2.7079
X5.6268Y-2.8079
X5.6268Y-2.9079
X5.6268Y-3.0079
X5.6268Y-3.1079
X5.6268Y-3.2079
X5.6268Y-3.3079
X5.6268Y-3.4079
X5.6268Y-3.5079
X5.6268Y-3.6079
X5.6268Y-3.7079
X5.6268Y-3.8079
X5.6268Y-3.9079
X5.6268Y-4.0079
X5.6268Y-4.1079
X5.6268Y-4.2079
X5.6268Y-4.3079
X5.6268Y-4.4079
X5.6268Y-4.5079
T5
X4.4449Y-3.0039
X4.4449Y-3.2008
X5.1831Y-4.823
X5.3799Y-4.823
M30
